<mxfile host="app.diagrams.net" modified="2022-11-20T14:42:47.183Z" agent="5.0 (Windows NT 10.0; Win64; x64) AppleWebKit/537.36 (KHTML, like Gecko) Chrome/107.0.0.0 Safari/537.36 Edg/107.0.1418.52" etag="NTZd00StckUbvIuuTm20" version="20.5.3" type="github">
  <diagram id="pGKcQqe7rzBw23-9qWBj" name="第 1 页">
    <mxGraphModel dx="1161" dy="771" grid="0" gridSize="10" guides="1" tooltips="1" connect="1" arrows="1" fold="1" page="1" pageScale="1" pageWidth="827" pageHeight="1169" math="0" shadow="0">
      <root>
        <mxCell id="0" />
        <mxCell id="1" parent="0" />
        <mxCell id="WxOWdNABIb3smLaqyzwR-6" style="rounded=0;orthogonalLoop=1;jettySize=auto;html=1;exitX=1;exitY=0;exitDx=0;exitDy=0;entryX=0;entryY=1;entryDx=0;entryDy=0;fontSize=16;" edge="1" parent="1" source="WxOWdNABIb3smLaqyzwR-1" target="WxOWdNABIb3smLaqyzwR-2">
          <mxGeometry relative="1" as="geometry" />
        </mxCell>
        <mxCell id="WxOWdNABIb3smLaqyzwR-1" value="物理实体PE" style="shape=image;imageAspect=0;aspect=fixed;verticalLabelPosition=bottom;verticalAlign=top;image=data:image/png,iVBORw0KGgoAAAANSUhEUgAAAMgAAADICAYAAACtWK6eAAAAAXNSR0IArs4c6QAAEZtJREFUeF7tnTvPZTcVhlf4AxDRQIEgDZRhagouFd0QCdGG/IJARxdSIQRSAiVNoKQKVJQBiZqQCkSTUELB5ReAnpmzJ2fOd7a9li/7Yr+Wjgjz2d7b71rP9t1+wRSkgBRYVeAFaSMFpMC6AgJE3iEFEgoIELmHFBAg8gEpUKaAapAy3ZRqEgUEyCSGVjHLFBAgZbop1SQKCJBJDK1ilikgQMp0U6pJFBAgkxhaxSxTQICU6aZUkyggQCYxtIpZpoAAKdNNqSZRQIBMYmgVs0wBAVKmm1JNooAAmcTQKmaZAgKkTDelmkQBATKJoVXMMgUESJluSjWJAgJkEkOrmGUKCJAy3ZRqEgUEyCSGVjHLFBAgZbop1fYKfMHMXjWzL5vZ783sV2b2n96vIUB6K6z8axX4lJm9bmY/vMkIOPi3n9U+IJVegPRUV3nXKkCN8baZAcla+MjMXrvUKrXPe5BegDSXVBk2UOBrZvbWpTnlze43ZvZ9MwOYZkGANJNSGTVQgH7GG2b23Yq8lmZXk/6JAKmwhJI2U2DpZ3wv05zyPhA4yIuOfFUQIFXyKXEDBehn8NWn9mgd/nxpdjHqVRQESJFsXRPhKI/NjHY4X1Z+y9AmD8boGPwPWwxzdiwpZaKfQTl7h1+a2Zsl/RMB0ts0/vz5ktIswHHOFOgcM4oUafMDBmWNhv9ePg58QKKB96MTDyzuIEDcUnWLyBf0nU5NjG4vfZMxI0ePnJBQ1pJOOP0JoMLRqWVx9K8WFJCa5HZOZTUbAVKgcMMkjNi4jdXwuT2y4uvMnEUqUDu+H3w4TUnAoGl5G/i4AMrnA3kC2EtOmE2ABJRtGJV+Bc2Mki9pw9domtVvzexbmRxxdMrtCX+/gEETLhf4yJD3J3MRL3//undiUYA4FW0YDTjeO2FfIycBX/pchxtHptZMBfoZ1ET8Iv0adCUNfblcoAZxTSgKkJyUbf8+Khyo1AIQ+hlA5HLeFdPQjAOUtf6J5z2fZS1A2gKQyq0Ejg8uX1G+pMtwr7cZsV3Jnj7J43i5GqSlP9LcA5Tr/gl68u9uAFu+0NYGOdPzonAw0kLn854hMTDtbc8IDk5bPEl2R2D6TGsdYt41N4RKEyzVDOvhj+hFrUIn39Ofea7YPV7oTI67xbtG4KBjikHvjdjcvqunw4vT0t5uFYDNA2bp8w7nj4d7oVJlD5ouAgfVP1/XSMeULzrzCqnwSsmXcyVDAXJQRzvja/WGY9GEdjYbitYCHd9Ww8kC5IyeeMB33goOis6zaEqtdd6pkV5spJEAaSTkzNlsCceiM53j1Pi/e9w/YzgBMrNnNyj7HnDw2rm+iHvmWIA8r4A66Q2ouGSxFxw8ns49s/NrQYAU2lmAFAp3k2xPODyAtCllOpejTRTyttdbCBg6Z34pNBciQOpdZ284KAFzJ+/WF6UqhxaAtOorpQ598Kw6fiaEAKnyiScjSN6FhyXzHN63yw31evOpidcCEJ5fc+gC+0RYLZxaVRwa1RMg5S5xFDgowYcH2HDVChDKEz10IXrog7tPJkDKADkSHLkFgGUljKfihMPcNtpoU9Bz6ELJoQ/sfvQs59GGqbgfHKZZxauX7NArKLIrieernJvUXHvQvUMX6GewtyS3B+U2T09Npz6Iy+QPIx2p5gAO+j+pYzkLixlOFtnnvZzQEl22T7OLvhZLZ0oPl4ssBn0igppYfl84Ixxsg3U1JfwyPIjJsGn0GTWHLpS+Kk1AmqORxaACxKn2GeHga8nXOuQQTj1aRSs5dCH67NShD9m8VINkJTpcn8PbrGq5zD2vUl0MOvd83aPNrtRTI4c+rOYjQNKGPWPNQYlCk2F1vt0sdeTQhdRDl0MfmhynJEDWpT4rHC33fzTz/kBGuUMXUlm1OPThufwFyH25BUfAoztFvXfowtqj6GdQY7Tcf69RrBW1BUcnjy/MNnUoHP0M/p47LKLw0RrmvRVOcBS7UteEDAsDwrIprPRwufBLqon1sWSCI+w+uyTATpsNXQuQp8fYMB7PrjzPJS695xciM+Rn75DvQljkobMCstyFR0ewZKkGhyQsyx5afs0ER8R7N4g7GyDUFByRkzuF3Cv9sj6IZQy1oAgOr+obxpsJkJ53cVCjMDkX2s55ZWfBsaHTRx41AyA4H6cPbnG1Gc0uQIkEwRFRa+O4owMScb5W0rOylb0RniZX5P3UIW9loUA+IwMScb6AZK6oHkgi7yc4XLK3jzQqIBHnu1aVJQv0J66vHSAvfpF78MiTZQ/UJPdC5P0ER3u/d+c4IiAM23JRpGdOA6GAgr4DDp1qFpHfcjeHF5Z7+7QFh9s99484IiDea4ZLF7gBIPsXvJdGXu/VFhz7+3zoDUYDxHtqRotmC87OIrmXM4ovl9gIjpBrHiPyaIB4zod6reHqT2oTmmY5SADJO2vfAt5jeNcAbzESILkTzjGX5+ymqFmBhFErb78klb/giKrfOf5IgNAxT00Gei66L5W79Cib6+cJjlL1O6YbBRDPAWqtDkZeM0fNCYeCo6OT12Q9CiC5G197NK1udS89NVBw1Hhw57SjAJK7Gqx37bGYKXrKuuDo7OC12Y8CyP8SQnDtQHShIrXBZ8zsr0GBPU29JUvBERR3j+gjAJJzysi5sZ81s5+b2bcvxvinmf3UzH4SMA6z8bkD0ARHQNA9o44ASO5+vsgJg380s6/cMQibrADHE3LNPfJoORfjeSfFKVRgBkA8x/Ij3zfN7HcrOv7NzL7k1NgDiCBxirl3tBEAyY1geQH5gZn9KGGQT5vZvxwGiwz3qiZxCLpnlBEAya2/8gLyHTP79Yox/nHptHtsxbbbx56IlziCJCDW1lFHACTXB/EC8onLPpDP3THCj82MGsYTvE2s67wEiUfZHeLMAEhkFIszsn5hZl+8skV0xMmzYPKeqQXJDgDkHjkCIJQxNQ8SupPuItg3zIwh3z+Z2V9yIl79PTfknMtKkOQU2vjvowDCatrUkvMXnYco1MqfGzDw5C9IPCptFGcUQHJLPCLNrBrpc80rDl3OTSLyfEFSY4WGaUcBJNdRZ3ab9Vieo3hK5c3VHix5Yc8KnXhBUqryxulGAQTZ2Nqa2rTUc0Uva7eoPVLn/C7XokX2jqgm2RiI28eNBIhngq6Xw+U2a6H7dT9IkOzs+N7HjwSIdz/Go4J7vVN6ek5RudcHEiReL90x3kiAIGOuH7BI3aImAch3L3eLpExIx5wzte71fwTJjs7vefRogFDm3JDvogtLQgClpOPOoMBbzn0mORgFicdTd4ozIiARh1vu92C2/Pq40TVzsMaKWgpAPME7Cx955xxwnvdSHKcCIwJC0T1HAN1KRM2zHD+6XCdM02j5ec+1WvJlWBeQvDWUIHE67ZbRRgWkFJJW2nOPIUABXSQIkohaG8QdGZC9IInWHLdmFiQbOL73EaMDgg58yTn60zN77dVtLR4LI3met1m1lo8gqbVEo/QzAIJUuaUoLeRcZspb5EUegqSVkhX5zAIIEnlm2kuk5EhT8o72NzzPikASOZzC82zFMbOZAMHgNLVebWR5hnABwzM8XPNILyRbLMisKccp084GSA0kdL6pJZhgzN1G1doZvJCkrn1r/U5T5DcjIFFIjjIx54XEuwd/CgevLeSsgEQgoemC0/XoY0Tt5xlsWG60iuat+HcUmBmQs0LiWZCpWqQR7rMDclZIcmdvedeANXKjcbMRIE9t6x3dOkpzi/Vh7GBcC7wnG7QUKhUQIB8LeDZIcu+rZlYlHCQXIM+LmHO6JfYRapLciuXWM/sN3O18WQiQhzY7CyTsaPx3wuV6HlJxPk8vfGMBcl+4s0DS+kTJQjcaN5kAWbftGSBJHZRdcuTquJ5eWDIBkhbu6JAIkELH9yYTIHmljgwJfZC1w+pUg+Rtm40hQLISPYlwREhynXQB4rNtMpYA8Yt4NEhyN2sJEL9tV2MKkJiIR4Ik9y4CJGbbu7EFSFzEnGNuMZmYW2rCOwiQuG0fpBAgZSLuDYnn+QKkzLbPpRIg5SJ6nJTcWy9LyS0xWUokQMpt+yylAKkTcWtI2FX4XuYeEgFSZ1PVIA31IyvvYdnUJGzfZS9HSaDm4MDs1CU91/mqBilR+SaNapB6EaP3onMSCgsJvYfLAQRgAEgkCJCIWitxBUi9iFFAln4JzTN2/q3tdefOduY6AMNba6gGqbenmliNNSwB5PYVltPkl3/3Xq+QKopqkAaGVg1SL2ILQOrf4mEOAqSBqgKkXkQBUq/hYXMQIPWm2QsQ7j4krJ1arxqk3rbak95AwxwgXKaTur+95BVwfjrvdPTpzN8LAqRE2Zs0qkHqRcwBgsY489sN7igBNoaJAYOgDVP19kvmIEDqBfYAsjwFUPitffXX3oYrFoDidpJRgNTbT4B01jACyPIqzGswlMvSkbUhXfJdfmtFECCdjasapF7gEkDqn6omVisNVYN0VlKAdBZ4z+xVg9SrL0DqNTxsDgKk3jQCpF7Dw+YgQOpNI0DqNTxsDgKk3jQCpF7Dw+YgQOpNI0DqNTxsDgLkoWmYo2Aib5mj4P/z36OG5cZe/pflKUe4i/EwWguQp6YAgseXDUpsUpo5sNORGXs2c93uU5lOl9kBAYzXzYyLMUt27Y3uMNQmrCEDlinDzIC8ITDcPk9N8uaMNcqMgNCfeGfwfoXb84MRqU0AxXvgRDD740WfDRCaUxhZoVwBml0cXzRFZ34mQKg1okfnlLvR2Clrz/g6jTq9AKEZw1BpTccXI7AP4qMGatbAwdAnYbQRHQ7AXn6lOx6pSZbNWzVmYgSxdigdP8Ffmjb/egDCIWeMCrUKtdcZR+FgrzdGB4jSUxBblX2rfACFfSklm7lq7mPnA8pRqrVwLDoBxystP2atAfEerBw1fKkRInCwnRUw6KM0/QpFC7tzfGBhW++rzveoOZwbOFqcAXb9qrzPS61s2BqQ3LILp+YPojEOH+0/5G5gun4IR4HiFDODcSs6X3U+GC87jEbz5lGBfqlrrB2PXY1CLdKk9m8NSOpSyZoCR0/o4Cv4vqMPRHMKkEbrX9RofZ2WJhAfDkb/cgGHxDG9gZqDGqRHYCia964OrQHp9UWIAuKpuoEDI00xXFnpKd6mc6QpLEAqjXKdPAKIp2n1waXJJjj8RvJAQlOL9r8nCBCPSs44EUA+vAxfrmWtmsMp+p1oDGDkmlveoV8BciNwzslbHGHj+cp5DVjuRmOnzF0Y5K1FcoDkmmup5vwp+yBbAJLrezCRNPty9lp8PTfsekaRBMjGNYjHcLSPW8zM1zrZ2dPn7mb0fIgEyMaAMHvPLP5aKJlLObsj93p/z8foxcy8iADZGJDcJCUTWRq1aodMrhbJNbMEyMaApDptLCPhq6fQToHccDqrE1Jr8gTIhoDkxM4Zq53bzJVT6qOUG5TJ2ex0o1h8gVmXk1p5mZrep3OcWhrNEO3aVz6XlnSptVosg1Dzqj28KZvxtJQ/5GyGr6QGVFJ5p07FZ70dvrBsY0iq4l1qkusAt5deOUqBvgq4dkZ6AMlVhX2LodylQD8FgITBm9XgAYTmCTu+FKTAiAok+zoeQHLDpyOKpjLNo0ByONoDiGeB2jxyqqSjKZCcH/MAwmgDbbW1+7hHE0zlmUeB7JIYDyDIxdAuNUn0dtZ5pFZJz6aAa5u1F5DrwrfeZH82YfW+51ZgmQdxlaIEEFfGiiQFRlBAgIxgRZWhmwICpJu0yngEBQTICFZUGbopIEC6SauMR1BAgIxgRZWhmwICpJu0yngEBQTICFZUGbopIEC6SauMR1BAgIxgRZWhmwICpJu0yngEBQTICFZUGbopIEC6SauMR1BAgIxgRZWhmwICpJu0yngEBQTICFZUGbopIEC6SauMR1BAgIxgRZWhmwICpJu0yngEBQTICFZUGbopIEC6SauMR1BAgIxgRZWhmwICpJu0yngEBQTICFZUGbopIEC6SauMR1BAgIxgRZWhmwICpJu0yngEBf4Pnx6L9iAojrIAAAAASUVORK5CYII=;fontStyle=0;fontSize=16;strokeWidth=1;" vertex="1" parent="1">
          <mxGeometry x="192" y="369" width="100" height="100" as="geometry" />
        </mxCell>
        <mxCell id="WxOWdNABIb3smLaqyzwR-7" style="edgeStyle=none;rounded=0;orthogonalLoop=1;jettySize=auto;html=1;exitX=0;exitY=1;exitDx=0;exitDy=0;entryX=1;entryY=0;entryDx=0;entryDy=0;fontSize=16;" edge="1" parent="1" source="WxOWdNABIb3smLaqyzwR-2" target="WxOWdNABIb3smLaqyzwR-1">
          <mxGeometry relative="1" as="geometry" />
        </mxCell>
        <mxCell id="WxOWdNABIb3smLaqyzwR-8" style="edgeStyle=none;rounded=0;orthogonalLoop=1;jettySize=auto;html=1;exitX=1;exitY=1;exitDx=0;exitDy=0;entryX=0;entryY=0;entryDx=0;entryDy=0;fontSize=16;" edge="1" parent="1" source="WxOWdNABIb3smLaqyzwR-2" target="WxOWdNABIb3smLaqyzwR-4">
          <mxGeometry relative="1" as="geometry" />
        </mxCell>
        <mxCell id="WxOWdNABIb3smLaqyzwR-10" style="edgeStyle=none;rounded=0;orthogonalLoop=1;jettySize=auto;html=1;fontSize=16;" edge="1" parent="1" source="WxOWdNABIb3smLaqyzwR-2" target="WxOWdNABIb3smLaqyzwR-5">
          <mxGeometry relative="1" as="geometry" />
        </mxCell>
        <mxCell id="WxOWdNABIb3smLaqyzwR-2" value="孪生数据DD" style="shape=image;imageAspect=0;aspect=fixed;verticalLabelPosition=bottom;verticalAlign=top;strokeWidth=1;fontSize=16;image=data:image/png,iVBORw0KGgoAAAANSUhEUgAAAMgAAADICAYAAACtWK6eAAAAAXNSR0IArs4c6QAAGhlJREFUeF7tnQv0PkVZx78KCBIhSkZJChgUAYlyRypD4yIewEwuIakJB7qcI5ckbyGVghpKeTJMFDIVkYtwEG+ISCJUQCEiBpaBQooiBHJLULDz4czg/Jf3/b07szO7s+8+zzlzdvf3m+t39/vO7ZnneZxMciCwvqSfa4QnS3piI6w942/NONTn/4Jw/5x74oT/+56k7zTCPTkaN+U8Hjflxrdo+xMkPUvSM2YQICTEGi3yGiLKfTNIE5LovyVdP0TFxlKmEeQnb2pjRwYIQfhVSZuP5UV2qOePJH1lRvh2hzyXJukUCfJTDSJ4Qqy7NG81T0PumEMceqXJyBQIQs+wo6RfdwFCmKQjcK2kL7pwhaRvpGdVf8plJMi2krYPSPGL9b+GUdeQeQyEgSxXSfr3UbemUfmxE4T67+YIsZ2kndxkepne0djawiLAv0r6N0eYiyT9eGyN8PUdI0FYWdpT0h7u+syxgj+Ret8o6TOSLnTXB8fU7rEQhIl1SIqnjwlkq+ujCNzSIEv1E/6aCcJGG72E7ynYdzBZHgQYivmehd7lzhqbViNB6CkOkLS3JHaoTZYfAZaUL5B0piNNNS2uhSAbOFJAjOdWg45VZAgE/tkRBbJ8d4gKhGUOTRD2JiAF4WeGBqNA+Q9Lul0SelIEJqgPBCF89vdUY01JLEZwbd7756dKIoDb4wvUfegswQ2SEFhGHkSGIMg6ASlYoh2j8LEz4fwfF77VIIInBUOHPoShqCdLSJwNJf2CCyxs8L8xCkvFniz39tmAPgmCJuuRkg6TtFGfjUwoi1/561y4ISCCJwX/H6PQ+0AYyOKJg77ZVi7w/5rlm5L+XtJJrjcuXte+CPIqRw4UAGsTiPDVgBA8f722SvZUn00DskCaLd1zT8W3LobdekjykdYpEiOWJsiLJB3hdrsTq5g12dckXdkIWQtY0sx2kBSGX66knec5olxWqj6lCII+FMOpg0tVvEW+THr/yak8oPbAr87NLdJZlMUIcD6Gd4x6D+E33aLC4pRlYrzLESX7+81NEMa19BiQY/UyWKyYK5Pmz0u62F15NimPAO/9+ZJe4K489y0slDDsImSTnAT5bUknSupbe/bqBilGpeuT7U3WkxHL0yFZtum5ap+T9Ho3cuhcdC6C/Lmk4zrXpn0GrIt/1inAoWJtUi8CHD1AXWh3dx6nj5reJel1kt7btbCuBKG3oNeg9ygtrIV7UnBE1GR8CLCK6cnSxx7Y+x1RkvejuhCkjyHVlyWdIelcSf81vu/BarwCAptJeqlbyNmiIFLXOJKgEBktqQQpPaQ63xGD3VOT5UaAxRxWOwlM8kvJn0k6PjbzFIKcJWm/2IJaxL/NkYIeg+ObJtNDgOGXJ0uJ1p8taf+YjGMJUoIcnAM42QUzNRPz9pY3LnssqCQRcksUSWIIkpsc6DN5YkxVtSP3y1+2/EoRpTVJ2hIkNzlYfoMcmJAxMQQWIVCCKK1I0oYgOclxuaQTJH1qESL2f0NgBgJ7SXqDpF0yobOQJIsIkoscP3DEgBwPZWqcZTNNBFZzJIEoa2WAYEWSrESQN0p6S4YKsGQLMdCiNTEEciGAdjEk2TdDhnOXgOcRBMMJn85Q8F9IYs/ExBAohUCuPbkXzjIYMYsgHMtErWPrDi3CHOUxktDXNzEESiOQQ6sDrQ3UXzhO/ajMIsipkjgBmCqQAnJAEhNDoC8EcugFnibpkJUI8keS/q5DixiWsdJgYggMhQArpAyXUuWP3RbEI+nDHmQ9SXQznBZLEVTQfyMloaUxBDIjcGkH1XrcOaA8iYu7VQgCc96dWFGsee+cmNaSGQIlEPgXZ+0/Je+XS/pQkyBYtEv5yDn3vWtKLSyNIVAYAVTdUxab2Jp4cUgQHlJWnIwchd+wZd8JAQyec7guxWonxLrWz0HYTeTwSoygefu8CduQisHK4g6HQOqP/5slvQmCYLYl5Vy3bQIO99Kt5DgEUrYu/gPDeRDkIEmnx5Uneg+IdWtkOotuCAyBAIbuMC4XO9TaHIJg/eGtkbX+a0lHR6ax6IbAkAhgL+uoyArsC0E4l/GHkQnRz8celYkhMBYEsM8V64H3tRDkE5KwodtWbOWqLVIWrzYELnFmUtvW6zQIwqm+GKvrGFVg3mJiCIwNAazB/25EpS+HIFihe1JEondKek1EfItqCNSCwDsk/UlEZW6HILFO3m2CHoGwRa0KgeiJegpBFp7jrQoSq4wh8BMEoo+QpxDkeqftaMAbAmNDgM2/X4mpdApByB/lRFazTAyBsSCAkx9WsaIklSBs3R8aVZJFNgSGRQBL76ucFmxTnVSCkDeqJrEbL23qZHEMgdwIcNYc1xnR0oUgp0g6PLpES2AI9I8A5EjyR9KFIDQTS9msapkYArUi0Mm+W1eCAMpzJXG80cQQqA2BFE31VdqQgyBkuMiEaW3AWX2mgUDsJvhjUMlFECxAbCDpnmngbq2sHIGflvRdSU/sWs9cBKEe+CTfSRL+qk0MgaEQ2FASVnay+GrPSRAAwa7WgZJuGAodK3fSCGwu6aOJlkxmApebIBRidnkn/Y0O1vgc9nmLzUFmoWJGHQb7ViZXcC4L770ShMLMkPXkvtVeG5zDYPWKFS4xxGoW+E3nQIeddxNDIBcCeMDFgc5GuTKclU8fBPHlnuuIYvpbJd/o8ueNwRCI8ZI+mtonQWjP/ZKOd0Tpo31WxnIhADFQHVm7r2b1TRDfLiw5Ym7oA3011MoZNQIMpwj0Hr3KUATxjfyCpPdIOrPXVlthY0FgMGJ4gIYmiK/HZ1yPcsFY3pzVsxgCT5D0yqF6jGarUgjycUn7FILncknY3SL8b6EyLNs6EWA16mAX2BEvIfj9iHIbnUIQNgB/kGDPN6bBGMf2RLFVrxjkxhcX/T1PjBj7bDEtfdCtfKHEeFxMwlSCsHOJP0IMcW0fU2BC3I9JIjD8ujchvSWpD4F1JO3tfNKUXq692K18XSEpese9C0GAHXXit0l6dQ/vAC1hSMIQD2+6JuNDAO+zDM8hB1q3paWp7tQ7QXwD6SIhSh+NpsyvOrJAGHwrmtSLACdOIQRhy56qSW9xrKSLGuUNRhDqgZMS/IygVdmnXOdIAlEAhPmLyXAIPM0ZSIAYhK16rgqmcSHHfTPKHZQgvj5Yzz5S0g49A+OLY1LP/sqFqaZeBqr3mIvdXdIezmdl75t5DjhGE9jeXcmgYRUEob7MbSDJEaWVyVp8VZwuI9DtcsVRvEk6Ahu7k6M7uiurUEMKh/QgxgdbVKIagvi6/rwjCWRZs0UD+ojynQZhGKLd3kfBIywDn34MkSCBJwSulWuQOx0xIAc6fm2kOoL4Sj/b9SivaNOKAeJAGib+kMUHnqdihIL9ASbQkMEHnmshQ/OTeJ8jR+zR7moJ4hu4p7OPGuuTfQDOPFIkZ1mwCM4xYsLXg+sPh6pUYrlrSNpUEoeM/JX7LSoYBrdt0jmSIEeSGdEh9kHaNqwZ71mSDnCBlzRGuTkgDPd3u0Cv4++5hs8527muJAK//v6++fyMgBDcj1H4YUKZlYC7wC5SfQ/SbNxaAVHYRFp2eUASag9cfQifuUdQ2GPORgjvw+dlx4rNYE8MVJtyyOgIEjZ654AstY59c7wky2M+AswFPSlKmLMdNUE8bOs7ouCamrX11eyLWmoEHnJ7Vp905LijYGuXgiAhPptIYmIPUQgMyUzGjwBDJjZyCZwFuqmnJi0dQULcMCUJSTxhmJyajAcBFis8IbhiqrZvWWqChGBiKDsky1P6RtrKa4UAh95CUmBQekiZDEFCkDlks4tTjONKYM3fpH8E2BviVCgB5VGu3++/GnNLnCRBmmisJwmPphzogixDKU1W9F0UrcqVjgiXOkXBu4qW1i1zI8gM/DxhnueIg9qLSToC1zgioDGN5mzNhGi20gjS4r1jdAxn8j5gIMDft0g+iSgMldBzmhXaKgbWCJQRpONbmUUa/tabJb+O9Y9NjhbzLBKg3rGMYgQp9FZZJWN3f6WAaj/q4UPLw5LYkb7VXbmfF6ZmBGN0BGEFiqO6ty3JQabVAxIx98GoBb0P10XBx4NgDGPw++hD+Dzvf/QGEAEsTWYjMBqCvN2dXd8saAcHYFAtf7dzo2Uv2RDIjUD1BMHqySckLVpJOlXSobnRsfwmj0DVBEFV5JaIV/Q3ko6KiG9RDYFFCFRNkKslPWdRCxr/38uMxEUiZtFXQqBagkRXzLWSI65bRxzKt8/DEBglQT4s6WWJ724bSV9KTGvJDIEQgegf6hTbvFiuOzoSd2wXcQ49RTBEh3N4E0OgKwKYCIqa16YQ5GxJ+0fW9MeR8cPo5m+9A3iWdBUEzpK0XwwmKQS53pmKiSnHepAYtCxuKQTYZ0N1qLWkEITMd11gA7VZAZuDtH4lFrEQAhyBuCQ271SCxG7kRU+OXENsFSv2jVr8eQi83xktjEIolSAUsp2kGPdotg8S9WosckYEdku1xtiFIKdIOjyiEbaTHgGWRc2KAKZKIUm0dCEIhbGaxapWWzFdrLZIWbxcCLxR0ltSM+tKEMrFi1CsFTzT5k19Y5YuBoGDJJ0ek6AZNwdByJN8UmTZzoOkYGBpyiHQZf/tkVrlIggHe7BVNRV/GuVeqeWcAwGMCmKDi0NqnSQXQagElvLwRIS7ZhNDYCgEmOfiao9Foc6SkyBUhh3zA50hgM6VswwMgUgEsFCD3h4a4FkkN0GoFBYxjpF0XpYaWiaGQDsEcD9+onMY1C5Fi1glCOKLNSXDFi/AomRBIFVTY2HhJQlC4fQi9CbLamdpIcAWoSgCuO+j16D3KCKlCUKlcYR5giR23k0MgVwIHCbpDaUdkPZBEA/IuY4oMfpbucC0fJYHgW0dMV7SR5P6JAjtwejZ8Y4ofbTPylguBOgxUB3pzRRs3wTxr+sqSSdL+sByvT9rTSEEGE4R6D16laEI4huJCf33OOeNvTbcChsFAoMRw6MzNEF8PXDkSI9ywShem1WyJAL4hX/lUD1Gs2EpBPm4pH0KIYTLrjNcwL+dyXQQ2EjSwS6wI15Czpe0b0zGKQRhAxA3vm+NKSgy7rcDotiqVyR4I4uO/p4nBtrdJeRBt/KFEuNxMQWkEoSdS3wAvkPS9jEFJsT9mCQCw6+p+bNIgGsUSdaRtLekl0oqvVx7sVv5ukJS9I57F4LwJlAnfpukV/fwWtAShiQM8T7dQ3lWRH4EXuiG55ADrdvS0lR36p0gvoF0kRClj0ZT5lcdWSAM7oZN6kWAE6cQgrBlT9WktzhW0kWN8gYjCPXAUxTzkmJ6MXPAvc6RBKIACPMXk+EQeJozkAAxCFv1XBVM40KO+2aUOyhBfH2wpXvkgP7JmdSzv3JhqqmXnl/oMhS3u6Q9JOFqu/fNPAcgowls7+Kaep5UQRAqx9wGkhxRWpmsxdfF6TIC3S7Xb7RIY1HmI7CxOzm6o7uyCjWkcEgPYnywRSWqIYivK55fIQlkWbNFA/qIgqPLkDAM0XCAafJYBPDayxAJEnhC4Om3BsGnJcQgtPXdXh1BPJD4JIQkr6gB2Rl1gDRM/CGLDzxPxQgF+wNMoCGDDzzXQobmK3ufIwY+3mOkWoL4Ruzp7KOy/j0G4SwLFsE58EXAVrC//nAMDQjquIakTd2RVH/lwNEWFQyD20J5jiTIgaXEFKmeIL5RONM5wAVe0hjl5oAw3N/tAr2Ov+caPuds57qSCPz6+/vm8zMCQnA/RuEH6UwXru3YgNEQxLdzrYAobCItuzwgCbUHrj6Ez9wjKOwxZyOE9+HzsmPFZrAnBqpNOWR0BAkbvXNAllrHvjlekuUxHwHmgp4UseZs2+A6aoL4Bq7viPIit7a+WpuWW5zRIvCQ27P6pCPHHQVbshQECfHZRBITezahCAzJTMaPAEMmNnIJnAW6qacmLR1BQtwwJQlJPGGYnJqMBwEWKzwhuGKqtm9ZaoKEYGIoOyTLU/pG2sprhQCH3kJSYFB6SJkMQUKQOWSzi1OM40pgzd+kfwTYG+JUKAHlUa7f778ac0ucJEGaaKwnCY+mHOiCLDtU9IKWsSpXOiJc6hQF76q4kUaQGS/HEwZNU4iD2otJOgLXOCKgMY3mbM2EaLbSCNLivWN0DGfyPmAgwN+3SD6JKAyV0HOaFdoqBtYIlBGk41uZRRr+1pslv471j02OFvMsEiyrsXEjSOwX0jI+q2Ts7q8UUO1HPXxoeVgSO9K3uiv388LUjGCMkiDPcRbgl8EO1uoBiZj7YNSC3ofrouDjQTCGMfh99CF8nvc/egOIcNvQDK24/NEQ5OXOgBcrTf5Xl2VBDjJhr/crFYNsVRsvAtUTBD0rbPHutwBjLKS8frzvwWpeKQJVEwTVEM5HtBUjSVukLF5bBKomyCVuH6JtY4i3nSQzPRqDmMVdCYFqCXKoOyoZ+/o+52wsxaaz+IbALASqJQjniCFJirCR97WUhJbGEGggkEQQdPNjTPKkzA1QWsPKXopgrh57vCaGQFcEsPz5uohMHsDAG7umz4xI9GFJvxcRn6icBcCid4q8VtJfpSS0NIZAA4EPOVcLbYG5EYJ8UdKvtU3hFNR2jYhPVMzlpFovOUTSaZHlWXRDYBYCsQtFl0GQj7oz4DGQYkvp+ogEuIBONWoNeRmimRgCXRBApw4bZzFyJgR5p6SjY1I5N864420rb5f0p20jN+I91UyDJiJnyUIEcD+OG+kYOQmC4OEHD04xgosB9ihQiGsjnCf/UoIyH455/rZNARbHEFgBAVxzXJbw/f0OBMEwGcciYy2GNL33LHpDqJectShS8H8O48TOdSKyt6gTQuBUSa+KbC+ru0+CIEhKBvQiu0WO69qShN1zeigTQ6ArAtiBPjshExaGDvEEwU4uk/VYwQJ6rAch1L4ZD1Im3ohCwZoe2rynxFbE4hsCMxDYzKkqpZiIOhBDdp4gT5aEYWDmCrGSQhJfBgYVMKzwn5KusrMMsdBb/AUI4CwJ/+uxgs0uDKzf6QlCBq+RdGJsTi4+to8w6GZiCNSCABYbsZ2WIsc4F+ePuErzwmSdIc42KTlK+oiklyWmtWSGQE4ETpd0UGKGV0vCkPojlvZDgvDMSb9/TMyYZP+QsFrQoThLagg8BgEm17/fARe8oD3q77BJEPLFL0OX4dJ5kuiiltUyRgfsLWlBBFBlYoqQqrFB1RiWreKnZhZBUO3A33jsvkjYdsgBSSCLiSFQGgFIATlS9f2oH3uBdAzYRXhUZhGEf+JwE4fsXSV2M7FreZZ+eghEn/GYAxEbiUwRVpF5BCESau05Jt3nO90tbLiaGAK5EGCLAN0qzgt1FXqfmbqCKxHk6W6ohR5LV2Hb/gQX8ChkYgikIoDHMYhB6DIN8OVfIGmfeZVZiSCkYWzHNn0uN2iorUOUT6WiY+kmjcBejhhsLucQNrlf7M4rzcxvEUFIhK9A9jhwMZxL3ivpZLd7nytPy2d5EdhW0mEu5Gol5Nh/kS5hG4JQIbRq2XzB/mwuwQ0yJCFw4tDEEGgiUIIYlNGKHERsSxDi7ugm7ptmfo93BkRBQ9jEEChFjChyxBKE+ChwYTo01ULJSq8eo8tnuHCFfSOTRADdqYMjDSvEAMWhqcMXDavCDGN6EJ8O6yQsi/1BTM0i47I0DFlwKm+y3AhgEd+T4gUFm3qSm+AztG8tKQTxmUMQiJJqzqdNJb/siHKOqa60gWtUcdj1ZpIMOTACUkpudMRI+rHtQhAaxFALkpQYcoWA/UgS69UEjMjdUQpNy7coAlj3Z89hbxfoPUoKpGC/BJIkSVeCUCg9yF9KOiqpBvGJIAck8YSBPCb1IgAJPCEgByQpLXwjb5b0rq4F5SCIrwP7JW/q2e0ySpEYA8P5DkYebuoKiKXPgsAmzpI/Iwu2CLooEcZWCMMgkOO62ISz4uckCPmz9Q9JhnJ+g2khdus/60LUhCwHoBPNA9vOu7vALjdu9fqWb7mRTFZ7BrkJ4kFhNeJYSfgmH1LoVVBfZtmYKz78TLojgDPTndzeGFf8zw8pHHCi18i+4VyKIB4srx7Axk8NwiH+kDCr6P7XUMFK6wAJQkJsXEk9sYXAvhzbAkWkNEFqJUoIJmNVVA+4+pD9l6jI28ufKVoSmHHyYcsEs075a/XYHL/giJG0dBtTwb4IMgaihLgxd/FkuUESZmAIt7jrWOc2zBUw7cRRBq4EHBR5QsT4iYn5znLFZahMj9HFbkJUXfomiK8ch+oxHJdqliWqkQUify8gC8Rhgoifcv5O8Pd97dewdIqRb1xqc/X3GwZEgBT8fYzCUIre4jEn/ko3ZiiC+HZx/h0LdpDF+0sv3eY+83+4QRxMydD7+BA++3vqxy85Zpi4Nu/9c0iEx/fZqJ7K4kcGUmDxEx2qQWRogvhGsyoCSSALk0GT6SLAwgmkgByDrzrWQpDwc+DUGOeMCRtM9zuZVMsZpnrNCMxOVSM1EsSDs15AFMiyjMOIaj6EASpyd0AKyHH/AHVYWGTNBAkr/0sBWXKdR14IjkUogoDvKbgOPoRa1MKxECRsx9Zuh55dekIfym+LcLT/z0eApXE0GtCZI7BZOxoZI0Ga4D5fEqotv9WzouRoXvIAFUV5FH04LHRyP1pZBoKE4OMoBe1RhmFokhJs7lL282QpGxIQUBT9vKR7yxbZX+7LRpBZyLFsHBKGJWWTdASYN4SEWGp9tikQpPkpcDZhe0nPdgHV7J9N/16WOiWGNDhCcI0LeAGblNX+KRJk1heNr8SQMNznNm9UO5NQ0IQIISEmb4bJCDL/s0WlA10myMO1Gfzfa1fwu0cSHzoBnTF/37yOVQGz6A+PEaQ7vJhkZakZXTKu88LaTr/K61hxDYPXsaJGXi+Laxj4iP0zG2soQ6Kz5K+z7qvcgOsOez85/D+unIoGRLITpgAAAABJRU5ErkJggg==;" vertex="1" parent="1">
          <mxGeometry x="371" y="217" width="100" height="100" as="geometry" />
        </mxCell>
        <mxCell id="WxOWdNABIb3smLaqyzwR-9" style="edgeStyle=none;rounded=0;orthogonalLoop=1;jettySize=auto;html=1;exitX=0;exitY=0;exitDx=0;exitDy=0;entryX=1;entryY=1;entryDx=0;entryDy=0;fontSize=16;" edge="1" parent="1" source="WxOWdNABIb3smLaqyzwR-4" target="WxOWdNABIb3smLaqyzwR-2">
          <mxGeometry relative="1" as="geometry" />
        </mxCell>
        <mxCell id="WxOWdNABIb3smLaqyzwR-4" value="虚拟实体VE" style="shape=image;verticalLabelPosition=bottom;labelBackgroundColor=default;verticalAlign=top;aspect=fixed;imageAspect=0;image=data:image/png,iVBORw0KGgoAAAANSUhEUgAAAM8AAADICAYAAABPhLXnAAAAAXNSR0IArs4c6QAAIABJREFUeF7tfX2YHFWV9znVPZMIIhBQ1ICviiCCfOzrJ65CXEXBhRVhBzJdt6p7Ao6vq6yCrvuCCAN5HxYJzCiYBDoh6emq6gmOgEAQxQ+igrDr+sGnq4JoXvADEGERMpnpqrPP6a4ehjCZqeque7u6597nyT+Ze88593fr11Xn3nPPQdAtlQgUhDgxAOgHxMOA6LUA8GcC+DUgVgCg4jjOs6k0fAEZhQtorqmfat40P0CIy4FJA7B4ToMRb0CiyqjrfjX1E+tSAzV52rywedP82xmE2asJc6pANBYgVlzX/WYT4/WQJhHQ5GkSuFaGFXK5IwLDaLxhXtOKrBeMJXqy9lnn+5Xy2NidicnVgmZFQJNH0YNRyOUO8BH7sf5Z9iYFah9GxEo1CCqe5z2gQN+CU6HJI3HJVyxf/uqpTKZBmLdKVDWf6J/zJgMhXuM4ztb5Ouu/R0NAkycaTpF7Dfb17b6tt7dBmKMjD1TX8fvIRDKMa8vl8p/Vqe0+TZo8Cazp0NBQ9qFf/aof637MhxIQqUrEjUBUMXp6biiVShOqlHaLHk2eFlbSsqyTkIi3lf8BAHpbENXuoX5toyEIxsqed0u7jekU/Zo8MVfKsqwPziDMnjGHp747Ij5JRBUMgvHRSuUHqTe4jQZq8kQA37Ksd4eE+TAALI0wpDu6EP2W30gZgGs3uu5Pu2NSyc1Ck2cnWNq2/TcQBPxJxoQ5MDnIO1bS3fxGIsQbXNf9ZcfOIkHDNXlmgGnb9oEhYU4EgCMSxLnbRP2AOKoBYLPneY902+SizmfBk8e27aUYBP0EwIT526jAKex3OwDcA3y4SrREod5IqhDgpiAIxn2AzZVK5S+RBnVJpwVJnlwut2ePYSwPCfOBtK0lAdzLW8hgGBw9PX2oWQscNYxTgYi3xHdJmd0BH8QC0XWLd911c7FYnEqZfYmbs2DI09fX17vLokXLA4CPANHxiJhNHM3WBG5l59yvh9PcO5+ogmWdEADw24iJZMzXX/Hf/8IR3wBw46jn3apYtzJ1XU+evBAnAxMG4HgC2F0ZstEUPQMALvl+xRkb48+zppplWX0YBMsB8aSmBMgchPhbANiEQbB51PPukKlKteyuJE9BiGMDopMA8XgAeJVqUOfThwAeXyFwHOcb8/WN+3fLsiysv43SGOlwNyJ+DX1/c6lS4Xi7jm5dQ558LncUZDIfISImzBtStyqIm8PLa2MqbDvuuOMW7b1kiY2IpwLA+1TojKODAH4IiNcR0WbXdR+MMzYtfTuaPPlc7i1kGPypwoQ5LC2gzrDjdkL0grof89/tss80zZdlAPJQJ1L6dhSJNpNh3BgS6Q/twimu3o4jT6G//6AgkzmJnX5APDLuhGX3J4AHEKCcqVYrGzdt+v+y9cWVP9DX9/Jg0aI88WYDwFvijpfcn9g/AqLNvPXdzh+cKPPsCPIMLF++n5/N1n0YovdHmZjiPn8koo3h1vJ9inU3rc40zX2zhlGg+mbDIU0LkjPwKQD4GgTB5m1TU5vHx/koKV0tteQ5ra9vyWRv78lYd/r5X9q2YycBYH3Nj+mCXaR8Pr8/BMEAEfGnXdp8xt8BwNeR6KZRz/tuWiiUKvKcccYZi55++umTIQgahNktLUBN28Gh+4huuVzu2tD9AdM8uAqwItxs2Ddla3APIt7EW98lz7urnbalgjxCiBOx/nY5HgH2aScgs+om+pZhGKWS42xKnW2SDQoDZFdA3UfaW7K6uOJ/hLyLWSfSvAfLcYXP179t5CkIcYxfd/qZMK+fz1DVfyeAHyPA1dne3sqGDRv4MHPBt4JpvjNAPC0k0kvTBAgCfDtA3Oz7PsfY/UaFbUrJwznKwDD+nnfKCOBQFROMqeMhQiyGW8sLNlo4CmaWZR2NRKcT0fK0hToRwNcBcTMA3OQ4zmNR5tNMH+nk4RxllMkcHx5evqMZIyWP4UjgIvq+Mzo2dr9kXV0p3srlPoiGcToA/GOaJkhET7N/BIaxmc+Qkk5RLIU8hULhAPL9BmH+Lk2AznD81wVEJdd1f5RK+zrUqLwQ/0BEHw1Do9I0i0cBYDOfIZU9j99KLbfEyMP3Ymq7ZKEf07JlEgQgwLVEdLVOciEB3FlEcsCqQfRRAjhGjcaIWhDvJIARx3HGI46YtVvL5LFNU4Bh1EkDsGsrxsgYSwBbDIDiqOsqiSmTMYdukMnPCSEOIsB7UjSfC8quO9SsPU2TxzTNQ7OIF4YXyprVL2vcPez47zYxMbpmfPyvspRouc0hkLes0whgEIje3pyEBEcRfaLseWuakdgUeWo3GgHWA+J+zSiVNIZ3x4pgGBvK5TJ/3+qWcgSGli3L/mbp0kFAHASAw9tk7kOZnp4jN27c+Hhc/bHJw2Ec5Pucgf/lcZVJ6P8cIharQbBOJzOXgK5CkZZl7WoADIZvpIMUqgYi+rjjeVfG1RmbPLYQqwHgn+IqSrI/AZQNomI3xJQliUu3yDrttNOWTE5MDGL9jfQ6BfNyy65rxdUTnzyWdR8QtSMC92asO/43xp2k7t+5CAghXmUAfAwBeNfu1TJmwptKjuu+N67s+OQRgu9cqGlEd5JhFB3HKalRqLWkBYGwABi/eT4mO6K+m8jD2SiL27ZvL47rnbK0PMvK7KjlAq/vxKlMZqLos03mmwdxHQHwm+Y/la2WVpQKBPJC2LXNgjZcEw8A3uI2kYs79mebZZoXIeLZMhFHohJlMsVyuazrasoEus2yuRDYxKJFTBj+164LeBeVXffzzUARmzx2f/9hkMlwyiTp1QI4RRMEQVGXumhmadM7hnOCIxFvS38ciNqW+ZR/pEc9b6BZpGKThxVZlvUhJPIAYI9mFccc91Wsb02n5gpuTPt1dwAoCPGeoP6WEW0G5K+IeNGo4/xbK3Y0RR5WWLtqYBjnKw7PuZ7j1Equ+81WJq3HqkXANs1/5DObFASIcg1WFwxjtFwu/6xVFJomT0OxZVknhLsjHBiqpiFurpHIcW5So1BriYvA4OBgz7Zt2waR6P8AwJvjjk+0P9H9BOBiJuMkGbrVMnkak6zd46i/kv8+0YnPJQzxW+Hu3HXKdGpFcyLA6awy9ciATwJAe8tOEn2H3zTbJiddGamrEiPPTBLx7gmpJBHA98AweHfuGv1stwcBzt4aGAZfOWDitLchOhgEruwKDYmTp4Ganct9GAyDgVSWcBwBfkhExbLnue1dvYWjPdw84igArgjezvYHDEmjKpOONPJMk8i2PwxBwOAepwpZBOB8XhwHt1GVzoWmJy/EANUDhN/azrkTwE8NRNeYmHA3jo/HvlbQiu3SydMwriDEieE2pTISAcBPwmDSYisg6bF1BPr6+pYs7u3laOd/TkHplpsJ0XXamEtPGXmm30Sm+ZHwOu6xyh5KxHtqJHIcvk6hW0wELMt6kxEEg4T46ZhDZXRfH5Lm+zKEx5GpnDwzSVSLmEX8YByDW+z7C76e7TjOl1qUsyCGh7nZ+NPslDZP+FFOpB9uNf9KpS39/f379PT07FMul+/ZUe+s5OHkhARwuOH73yht2sRl8aQ1y7JOCs+JVJKIiykVy667StrEOlhwXohTCIA/zdpdy+cuIHJ8AFdluRErlzsJDONDiPjOxt01AviTAXBbgHhdI+vOC8hjC/GvYSrVIxprz3cdEGDLZLW6btOmTb+X9Uxw7dDwnEhldWrOvs8kukjWvDpFbi3J/pNPcj6BMxXd3tw5NER8bueWPe96VfhxkOq2xYsFEnHo0Dvn0kuIpzCBpsljC8EXzvJzDOKKXcVsb29xw4YNUkkU1G8OKsv1hQC/58PW17/hDSuHhoa4JPqCaZZlvQbrAZpnAUBvGydOiLiGz2dUVj+o+XMAJtVJ87+izp8JVCOPJcQwAvAvTpTGhZyKWL8yIC1LTTvioQjgCQPxqucmJi4cHx/n+jtd2wqm+TYf8ZMIYLd5klsRcR1OTbmyXYSZ87Qs6+/CtwyTpic2Bogb0DbNj3Bh1diDAf44I3ONtKToYZl0/pxQVhEuzHF8JSGuTDq/cRM4JzrENk2uTMG7Zu0u8nsHIW584okn3FtuuWV7opOcQ1heCJOjugmg1d3eO9AWgjMmnt+s8exI8TawT1T0PE8uiYj4sFXlonNqq7XPTUysHB8ff7pZjNIwzhaCE7Hzp9mb2mkPAmwKEB3HcfhOmJIWJhHhNwz/S6rw8xNMnpsTCqF5jD/nsr5flFnINtwJ4rAflSSaAoA1YBgry+Uyh7V3ROvv79+7J5P5REial7XR6CoAXA6GwRX1Wr4KEHUeA0L87yqAwDppEs8ziHkhniKA3aMaFKFfjURgGOscx9kaoX9TXWzTPDXMNKm6CsOaXt+/cP3Y2J+aMlzBoHx//yGQyfxzuHupQONOVTwMAGsDANd1XWUl4mufpkwYRK6vKq3xm0dWKqnH2ScK6gk95JHItk8F3+fD1th5t1pBlXfnAqKVMj9V49oXOsH8aabuWsjsRv4AiNapDNDt6+t7yeLnt5qPiotdM/1lkqduD+LjDGQ1CIqVSoXPVaQ0y7KWh4etSkkEiBuMqamVKneKdgTQyuUsNAwmzfT5nBSQ5xFKAJ5BtFHldfkw/TN/mpkEcIDKecsnz/OzeYLPiYxqdZ3MBy0vRD8HoCLAMqVAApR9gJWu63L0gvQ2eMIJu0zsvvsZoT/zCukKd6YAkXfKRjJB4Gz0vAdU2WFZ1rtnbDW3pbSNSvI0cP0z+0SZnp5iqVSSFvrDJKJ6tsmjVS1oqGfMyGYvLJVK/yVDr2VZr6udyRExcdrZHiTEK3onJtyrx8efVGVIuGHE283tvj8E7SDPNIng+SSH7FhKabZp5sKNBaUkQoDxat0nSqTEuRDiXRmAswjgZClARRWKeBsBrG21qlpUddzPtu29IAgaW81tvT800+52kqduByL/ahWrvr9OZglwIYTJJSwAQIkzOQPk68Mt7qa2aGuHxPXQmTnjreI8jM305coU/GPnOM7tzYxvZgwXUMsg1g41VeQJjGtj+8nzvMW1qtTZIChuqFR+E3ciUfvzCXMYO6e0vB8C3IREK0ue9+MottpCfAqIPtPmAmJ8SDzi1wsfK/HlGJuweBpvNTNp2nZtZr51ShN5Grb+hYjWGdlscXR09KH5JtDs37lGZphLTCmJCOCbaBgXzpZKuFAovDKoVvktw/8yzc4tgXGcbH8kvHT2bALy5hWxbNmy7GuWLjXBMAQQKQvFahgW3h6ItcmURvI05vMUnxP5ROtk/uqF27z8OffueVc4yQ5E3+E3EacS5pNwv/6WySWpIrYsRLbpCpU1kAaWL98v6OkRARFvNx8c2+YWBiDA0wHRGsxkVlMQuHF3aNNMnhosYZBm7bBVKoksy8J67JzSC2DN/OK18LzsbOhGg2ht1E/KJPTbtv124GsA9asASvO7IcADRLR6ZiFfS4jbVJHnewCgNCyGfyUIYJ0RBMVSpfLrJBZwNhntLHUha047kfsM+zPG1NR6mbGIO+oWQpzIsWbYnl3DWyEI1pQrlRt2tEsZecqui0KI9xgA5wKAypufPOf/DqteryuXy9Lus9ummQ+3uN+l+KGWqq72qwswsvWRR0pbtmzhgE3pbcWKFbv5k5McB8ZvmXbguRGDYPVopfKTnU1WKXkaRhRM850BIpNIdTzVM1w5Iazjo0k0PwVuDQBGXIVJ8oUQb+QogFpUM+Jr5zcxuR4E8DQCXG5ks2tKpdIf55PcFvI0jOJ0q2AY5yqumsDqnwGAdaFPxLtEUpplWQUMAr6Ud6QUBZKEEsDVaBiXz5b9RZJKLiWyjN8y4ZtmkSw9s8klgHsRYHXZda+Ko7et5GkYatv2YRgETKK+OMYn0Pevtdg5319XGhuTEhrDNoaZMnl3rq2HlnPhFW6y8FYzRwI8lgC2kUSE0Rx8qKksxfIMw25h0oy6Lt9Pi91SQZ6G1aZpHpwxjM8Dkert12f5ukAmm+XYOakkChPap4lE9wHRSNnzNsR+epoccHp//z7bs9lG1pl2RHWvN4JgdalS+XmTU6gNSxV5GhPJ5XIHZAzj3DYkmngWidYF9VL0v2gF2LnG2qa5ItxYeIcsHRHk3hL6M9+O0DeRLrZt/w0SmbzVTAD7JCI0opDQnxlZ7Puri2NjHK3fcksleRqzKixf/lo/m2USndbyTOMJ4BCTYjUI1nkSQ+Zt214RXsp7ezzzmu9de8P6/ojMz9QdrQurIvCuWX/zljc3MvRnLi+77vrmJOx8VKrJ0zDbtu2l6PvnEiJXDFPZtrFPlCEqyrx3kres02rXn4nkkIjoSTSMkecmJq5QlZSkUCgsJt9vvGVihbAktMA3GwBfkVlOsyPI0wBzYGDg5X61+oU23EvZVoud4yrbY2P3J7S4LxLD2WqYRAjwtoR03B36M6MJyZtXTO3uUD0CgP8dOO+A5DtcZRCtVlFvp6PIM/05VyjsETCJ6sGQKtsEnxNBPQBVKolqCe2brWODuJkPNR3H4agOJW1AiHf5dcLwv92UKA2VsD9jIF465furK5UKR9oraR1JngYylmXtCkFwHiJ+TglazyvZDojFsLbpfbJ0W6b5UY7ijkGitUYQjMgMRdpxrpylNcw682FZOOxMLvszBsBIuwqSdTR5GqD29fX17rJ48XlE9HmVC4iI22ufc0RFmZ8JeSG4XivnBOfkey/dYY6ccWgEM5mRUqk0oWL+uVxuzyzfm6lfBZDjp809kZsDgC+7rqtsp3A2c7qCPDMmxhHf5xEA79BlVTxIoQ7OUV2UTSLWNWCaB08hTifvcF13i6p5cm43ymYbUc37qtI7Q89an+grMndA48yp28gzPXdbiHOgHoT6kjiAtNh3akZC+xcVNmpRdtuG27b9/hn5AJReuAv9mS9Wg2C1yno7UcDuWvI0Jm8L8S8hiVSmjuVUu43YubujLETa+gwNDRkPP/igCOpXAZSVbmngwP4MAVzqum45bdhM+9yq7vPwlYR2gmBZ1qcxCL4AiEtU2UEAVU5oHwagdgSJ+ExtxlvmzaqwmqGHi+4Oq9wpbHaOXf/m2RGYvGV9IiD6AqoND/FrPlH9Ul5L8VTNLvR840zTfJvBb5l65pm95usv4e+cn5o3AaRFuSdt84IjTwPAcAeLz4pUOr41EnFCe5WZ/+d6aPJCcCJAjjVTHdEO7M8A0cVgGFd0Yk2jBUueGSQaIAAm0euS/mWaQ17AsXNcZbsdJOrr63vp4t7exltGbRITzjHB92cM4+JyuVxRiHniqhY8eaY3FkyTby4yiZSFlBAR19Rs+EQ/TXx1dxBYyOUOoEymkXXm9bL1zSKf/ZlVjuN8vw26E1epybMDpLUaPobB8XOHJI72zgVyyZYiBsG6ue7MN2uPZVlHc0WAMOuMyq37hslrMZO5TGZOvWaxaWWcJs9O0LMs6yQkOg8ADm8F4CbGXlB2XS5b2XIr5HJHkGGc34Zr7tP+TKan50uqIh9aBiymAE2eeQCzLOuEkEQqk4UPlV33gphr+YLu4R0aDwD2aEVO3LE1f4bo4rLndbQ/E2XemjxRUALgBBXHBvwmUpfMo2kC2f39h0Emw8Vvl0acXhLd2J+5WGVS9ySMbkWGJk9M9PKm+T5C5M852ZUTHim77n4xzat1t4S4qlbxTk1ba2Szl8ism6RmGvG1aPLEx6w2Ip/LHUWGwSSSV2Hb9w8vj43FipHjZIHVyUlO8iitNc5nXrLrrpcVi0UORVqQTZOnxWW3+/uPpEzmPAQ4tkVRsw3/aNy794VC4aCgWpWSvGQh+TNR1lKTJwpKEfpYlvVWg4ivQ5wQoXvULrF33oQQywyA26IqiNhvwfkzUXDR5ImCUow+QojDmUSAeFKMYTvr2m7yrA03AbYmMJeuE6HJI2lJwwSO5wHRqS2oUE6ehj+z/wEHXDI0NBS0YHvXD9XkkbzEnMAxW99Y4MQYcZsy8mh/Ju7SpDRjaPxppH9Ek76IKvLE1pN+xOVbqN888jGuadDkUQS0QjWaPIrA1uRRBLRCNZo8isDW5FEEtEI1mjyKwNbkUQS0QjWaPIrA1uRRBLRCNZo8isDW5FEEtEI1mjyKwNbkUQS0QjWaPIrA1uRRBLRCNZo8isDW5FEEtEI1mjyKwNbkUQS0QjWaPIrA1uRRBLRCNZo8isDW5FEEtEI1mjyKwNbkUQS0QjWaPIrA1uRRBLRCNZo8isDW5FEEtEI1mjyKwNbkUQS0QjWaPIrA1uRRBLRCNZo8isDW5FEEtEI1mjyKwNbkUQS0QjWaPIrA1uRRBLRCNZo8isDW5FEEtEI1mjyKwNbkUQS0QjWaPIrA1uRRBLRCNZo8isDW5FEEtEI1mjyKwNbkUQS0QjWaPIrA1uRRBLRCNZo8isDW5FEEtEI1mjyKwNbkUQS0QjWaPIrA1uRRBLRCNZo8isDW5FEEtEI1mjyKwNbkUQS0QjWaPIrA1uRRBLRCNZo8isDW5FEEtEI1mjyKwNbkUQS0QjWaPIrA1uRRBLRCNZo8isDW5FEEtCI1QohXIUAFAZbFUYm2EBRnAPctuy7GHdNN/TV5umc1bSHOB4ChZmakydMEapo8TYCWsiG2aQpAvBgAljZrmiZPE8hp8jQBWkqG2LZ9JAQBk+aoVk1qijyIeNao44y0qrxTx2vydN7KWZb1CiRi0gwkZX1T5AmV3wFBcFa5UvmPpIzpFDmaPJ2yUnU785Z1LhGtTNRqxPtbIU/NFiK6xPG8f03UsJQL0+RJ+QKF5uWF6CeiLwLifklbTABXt0ye0KiHEOCsUde9MWkj0yhPkyeNq/K8TXYu93bIZC4GovfKshQRT2fy/AwAjkhCCQGUq77/mbGxsSeSkJdWGZo86VwZ27b3CjcDTpds4WjZdQtMni8BwKcSVPZsAHCW67rFBGWmSpQmT6qWo2aMZZpnI+JFsi0jgBHHdc9iPWibZh4QSxKU3pohOnOj5z0gQXZbRWrytBX+FyjPC3EKEV0qw6/ZYZYPAdFw2fPWNP6/FilgC7EhyS28mUqJ6HzH8y5MD9ytW6LJ0zqGrUrI53JvIT7kRHx/q7LmGT8JiMO1N47jPDaz73SYjS3EKgD4rCRD7iHEMx3H+Z4k+UrFavIohfsFygqFwh5BtcrnNR+TbgVRBYmGRyuVn8ym6wUxarZpngGI5wDAKyUZttbIZs8plUpPSZKvRKwmjxKYX6TEFuJfAOAS2doJ4IcEMOy67tfn0vWiAM9CLndAYBhny/qMA4DHwDDOLJfLFdkgyJKvySML2dnlCiFONohGpPs1RL8FAPZrrogyw51GR9ccMQAmUSLb2LMYcz0Yxv8tl8u/imJomvpo8qhZjUIudwQZxiUEcIxkjT6TJgAYcV33D1F1zXm1YMWKFbv527efTYhMIlntM2XXHZYlXIZcTR4ZqD4vk5+76uQk+zX/JFcTAAJsoiAYaSbMLNK9nHwudxQYxtkEcKyUyRDdSYbxOcdxbpciP2GhmjwJAzpDnC0En6FcJk/DtOQ7EGBk1HWvbVZXJPI0hNtCfAoBmET7NKtwnnGrsr29Kzds2PCMJPmJiNXkSQTGFwgRQpxoEF0u3a8B2EpEI47ncXBASy0WeViTbdsHItHZRFRoSfPOBz9MiJ91HOc6SfJbFqvJ0zKE0wJM0zw0i3iZAr+GdQ6DYQyXy+VHk5hBbPJMv4VM81So+0KHJ2HIi2QgOjg5ecHoNdc8JEV+C0I1eVoALxw6ODi4y8Rzz30RAD7ZurS5JSDAOJ/XlDzvriR1NU0eNsI0zZdl6udCsq4kbCOisxzPuzLJSbcqS5OnNQT58x8AWv5simDFXaFf89UIfWN3aYk8DW2WZR2NREyiD8S2IMIABPg2Ep2X9C9HBNWzdtHkaQ4527aPB99fo8CveTT0a3gXN3aCm6izS4Q80yQyzU9j/VPuFVENiNlvaNv27ZeMj49vizku0e6aPPHgNE3z4CzilxT5NV8mxGHHcbbGszJ+70TJw+qFEG9EgHMQwI5vzvwjEOBeADi3nRfvNHnmXyfucdxxxy16+V57XarCrwGi6xBgeNTz7ohmXeu9EifPjE+55UDEJDq0dTNfLAERr5zy/YsrlcrvZMifS6Ymz/yI20LwRkCkMJf5pe28BwH8OIM4XHKcTa3IaWasNPKwMYODg7tve/bZcxDxc80YN+8YxMeZoGXXXT9v3wQ7aPLsHEzbNI8DgKsU+DV/5K3nrY88MrJly5ZqgssbWZRU8jSsKAixzK9/ykmJUUKAr1eJLvI878eRZ95CR02eF4NXO/8Lgq8o8WsQrwjv1zzcwjK2PFQJeRpW5i3rzKD+Kbd3y5bPLuDzi3fZZVWxWJySJL8mVpPneXSXLVuWfc2++3IOP+nnNUB0Q3i/5gcy1zeqbKXkYaMKhcJBwdTUOYBoRTUyZj/e2/9/o657c8xxkbtr8tShUujX/NTgzQDX9SIvkoKOyskz/RbinFoAfDb0Zknz/DIYxqqkQjFm2rjQyZM3zQ8QwHoFfs3jRDQ8MTk5PD4+PinpOWlabNvIwxbncrk9s/WLd3xDMPmG+FskunDUdTcmKXyhkiefz+8Pvr9WiV8DsCa8X/NgkmuXpKy2kqcxEdu23wu+z59yspI5jIVvIc5R13JbgOThFGWXq/BrEOCm8H7NbS0vlGQBqSDPNInqdzn4U24vCfOeQMTzX7f//pcODQ0FrchfSORR5dcAwM/DOLRyK2ujcmyqyMMT51COTD3ER0gC4ruEuMpxnG81K38hkEcIcYxBdLUCv+bPHIcW+jVtDbuK+zykjjyNCQghTINJRHRI3ElF6Y+Il2Emc2mpVOLDtlitm8lTKBReS9VqUZFfc1V4v6bj8ljwA5Na8rBxp/X1LZlatIjfQnLyySHeTwBfdBzHicOebiWPLQSH08g/rwH4Ru28xvO+Gwf3tPVNNXkaYOWaY0CUAAAEGklEQVRN831hEpL3SQGQyIEguLQ8NnZPFPndRh5Vfg0B3BvGoclI7xxl6RLt0xHkmSaREJ+tkYhoSaIo1IXxt/e/OZ43b/KJbiGPQr/mqRl+zV8lrF1bRHYUeRihfH//IZDJcBISUwpiRN9CgFVzfVJ0OnkGBgb2C6amrlbk16wP79f8Qsp6tVFox5GngRVXM+aLdwRwsAz8uOJdNQhWzVZrqJPJo8yvqf8IsV9zq4z1SYPMjiUPgxcWM+JzoVq9FAntZ7W3kOuOzZTdieRR6Nc8YCAOjzrO1RLWI1UiO5o8028h235/GKEgq4zeRp/oUi+sNdRJ5FHo13CuveFt27ePjI+PP52qp1ySMV1BnmkS1bPo89b2nhLw4lxfq8qu++VOII9SvwZxQ3i/5j4JuKdWZFeRh1G2LOvNYSaffkmo3xwAXGoAxI29uqDsukNxbGqWpGF4k/zzGqLvhFUFbokzr27p23XkaSyMZVkWBgEHmx4kYbH4sl1PTLmqyBPTrPjdCeCX4f2arq07GwWVriUPT36wv3/vbZkM31w9MwoYkvt0A3me4/s1PtFwpVL5i2S8Ui++q8nTQL8gxDFhDoVlbVyRTifPaHi/5u42Ypgq1QuCPA3E85b1uSAIOJvP7m1YhU4lz/eAaKTseZvbgFmqVS4o8vBKFEzzUEI8hwCWK16ZTiPPr8P7NWsV49Qx6hYceabfQkLYYQ6FNyparU4hzwTHoVWDYHi26ApFWHWEmgVLnnBb+xUGF+si+rSC1eoE8rjh/ZpErqsrwLStKhY0eabfQpwNpl4q5WiJq5Fm8ny/FofmujdKnH/XidbkmbGkthBcZ4hJ9DIJK5068iDAb6Aeh7Zawny7XqQmzw5LLIQ4PLz+fWrCq58m8kzN8Gv+lPA8F4w4TZ6dLLWVyxWwnlPuwISehrSQZyy8X/OfCc1rwYrR5Jlj6fv7+/fpyWSYQFwGsNXWbvLcDkTDZc+7vtWJ6PF1BDR5IjwJQohjeVcOAI6K0H32LkQnxX1wbdteCkHwSNM66wN/h3W/hpMW6pYgApo8McC0LOtsJGIS7RZjWP1XKpN5w+joaOzK3nkhHiWAV8fVBwCc2HF4slod2bRp0++bGK+HzIOAJk/MR6SQyx0R1H2hU6IORaIrRz3v41H7z+yXt6yR2OdQiNeE92v+vRmdekw0BDR5ouH0ol55IQao/il3wHwitm3fvtv4+HjTWWNsIe4CgHfMpwcAfhTGoX0tQl/dpUUENHlaALBQKLwy4AT1RKcDwEtmEfVLw/dPLI2N/VcLampDbSH4It35O5HzSOjXcJEp3RQhoMmTANDs2CORWUuHRbQEAe4kgAfi3hydzxTbto/HIBgkoiMAcQ9AvJsArgWAiuM4j803Xv89WQT+Bxr0vNahXcIiAAAAAElFTkSuQmCC;fontSize=16;" vertex="1" parent="1">
          <mxGeometry x="532" y="366" width="102.46" height="99" as="geometry" />
        </mxCell>
        <mxCell id="WxOWdNABIb3smLaqyzwR-11" style="edgeStyle=none;rounded=0;orthogonalLoop=1;jettySize=auto;html=1;exitX=0.5;exitY=1;exitDx=0;exitDy=0;entryX=0.5;entryY=0;entryDx=0;entryDy=0;fontSize=16;" edge="1" parent="1" source="WxOWdNABIb3smLaqyzwR-5" target="WxOWdNABIb3smLaqyzwR-2">
          <mxGeometry relative="1" as="geometry" />
        </mxCell>
        <mxCell id="WxOWdNABIb3smLaqyzwR-5" value="服务Ss" style="shape=image;verticalLabelPosition=bottom;labelBackgroundColor=default;verticalAlign=top;aspect=fixed;imageAspect=0;image=data:image/png,iVBORw0KGgoAAAANSUhEUgAAAMgAAADICAYAAACtWK6eAAAAAXNSR0IArs4c6QAAC/lJREFUeF7tnW2oZVUdh5/5lJATfbMo6F2wBlMZnRClMXuBGJHEiKAZ7IUyK8mK+pCRgkGlVmYmQVYaRlgkmOOHGF9zQoscNZkIlcAPUhGC5YcCwVhyTnO8nrPPvnfO73/unP0suMzce9f+rfV/1nn23XsfOGsL09uJwMnANuAUYMeMfkP+8dPAfuD3wMPAzZsIxtHA2aP12z5aw5dtovltlqncP1q/R4A/AAfWTmzLlJleBnweOGqzVHGEzOMO4BPAY0ue76nANcAJS57HkTb8f4ArgYsnJ75WkIPAcUdaZZtsvhcCVy9pTucD1y5p7FUZ9s/Am8fFTAqyDzhzVapcch2nA/cWz+E04LfFY67qcLcD72zFjQXZDdywqtUuqa7XAE8Ujd3uOf4JvKRovCEMswf4aRPk+NHZbusQqi6scS+wq2i8dlnVLq9siyPwb+C0JsingO8tLtekCQLtaeCDYSLHAn8JjzHU+E83QX4IfHQGgbuGSmYdde/s6Pth4CfryNpI1w8CP+s40DWcT3XWGl7XBHkAaGe6aa3BPWN+/mB7XAJ8taP67wAXhelcMXosP2uYS4E2T9t0AncCswQ50AR5bs7ZR0FmA5onSMUJpmuB28wVpPvU0MlPQQ7vvKogh8dvMxytIMFVUJAg3KJoBQmCVpAg3KJoBQmCVpAg3KJoBQmCVpAg3KJoBQmCVpAg3KJoBQmCVpAg3KJoBQmCVpAg3KJoBQmCVpAg3KJoBQmCVpAg3KJoBQmCVpAg3KJoBQmCVpAg3KJoBQmCVpAg3KJoBQmCVpAg3KJoBQmCVpAg3KJoBQmCVpAg3KJoBQmCVpAg3KJoBQmCVpAg3KJoBQmCVpAg3KJoBQmCVpAg3KJoBQmCVpAg3KJoBQmCVpAg3KJoBQmCVpAg3KJoBQmCVpAg3KJoBQmCVpAg3KJoBQmCVpAg3KJoBQmCVpAg3KJoBQmCVpAg3KJoBQmCVpAg3KJoBQmCVpAg3KJoBQmCVpAg3KJoBQmCVpAg3KJoBQmCVpAg3KJoBQmCVpAg3KJoBQmCVpAg3KJoBQmCVpAg3KJoBQmCbjvcNklmtc2wiWebX9vI0zadgIIEXxkKEoRbFK0gQdAKEoRbFK0gQdDegwThFkUrSBC0ggThFkUrSBC0ggThFkUrSBC0ggThFkUrSBC0ggThFkUrSBC0ggThFkUrSBC0ggThFkUrSBC074ME4RZFK0gQtIIE4RZFK0gQtJdYQbhF0QoSBK0gQbhF0QoSBK0gQbhF0QoSBK0gQbhF0QoSBK0gQbhF0QoSBO1TrCDcomgFCYL2L0gQblG0ggRBK0gQblG0ggRBK0gQblG0ggRBew8ShFsUrSBB0AoShFsUrSBB0F5iBeEWRStIELSCBOEWRStIELSCBOEWRStIELT3IEG4RdEKEgStIEG4RdEKEgTtJVYQblG0ggRBK0gQblG0ggRBK0gQblG0ggRBew8ShFsUPVeQg8BxMyZTsb9FEYfIMPMEuQU4OzLyodDvA5/sGMP9QboXoEuQp7cAPwbO6xDk7vACbzT+uYkDWx2z2rjftD7td5M/n9Z33s+aJLPal4BvbrTAnsd9BLiuo+9m3Dyna03GpfRd39Z/Vl6f9X07sHMGv9vai+Mi4Fs9F8Nu6yPwHuA36ztk3b13APet+ygP6EPg0ibIuwoWsc9kVrHPK4C/hwt7KfAI8NrwOEOMP2d8efFt4LNDJBCs+UrgC8H8yeh2idwulW2LI3AHcObk9fcB4ITF5Q866a/A64sJXAucXzzmKg/3JuCxtTeujy9hYVcR8vNwl1DYr4D3LWHcVRvyQuDqVtS0JzvtLNTORrb1E/gj8F7gH+s/dGFHvBv4EfCqhSUOK+h04N5xybMej54K7AaOH30dPSxGG6q23cd9bkNHLv6gY0b3P2393gq0723dBPYCFwBPTHbrev9g3O/VwMeA9rzYdojAM8CDwEOjf5dxSdVnPV4+urfser+mT84q9plcv/b/F7U+gqwiGGuSQC8CCtILk52GSkBBhrry1t2LgIL0wmSnoRJQkKGuvHX3IqAgvTDZaagEFGSoK2/dvQgoSC9MdhoqAQUZ6spbdy8CCtILk52GSkBBhrry1t2LgIL0wmSnoRJQkKGuvHX3IqAgvTDZaagEFGSoK2/dvQgoSC9MdhoqAQUZ6spbdy8CCtILk52GSkBBhrry1t2LgIL0wmSnoRJQkKGuvHX3IqAgvTDZaagEFGSoK2/dvQgoSC9MdhoqgS5BtgFvAU4CThkqoI66/wXsn/jwuPQ2B+tdgteN1q99smLbQ2TregMG0L+tX/u42IeB9rnUL2rTBGkfV3lVx647A+C2oRIrtzuYN8GuXcPmHTvU39802sruqUkAawVpn8d7w1AJLaDutu1B+/DoZX0M6RuAfW6ms+GVfHa0HeGN44RJQfYA12842gMnCbQPi67+hPc25t9choUQOAu4tSWNBRHuQrj+P6Rd125fbOTctPu9V5zLaD0djgUeHQvSLqva5ZVtcQQqt0NoW71dvripmzS6VN3VBDkX+IVIIgQqdpp6JfBkZPaGntcE+TrQ9vO2LZ7A+4FfLj72BYm7gF+Hxxhq/FVNkNuBd8wgcBdw92ij9vHl2OTm7Gs3at8IyFl5ix5nI3Prc0zXxjSXAV/pE3IYfS4BuuZwaXj9Jqd+JK5l2xhq5wz+97QXfXvDa9abSE2QMw5j8Vb90HkvzvYkpD0RSbZb5ozRBGnztE0ncGeHIM80QZr1s5qCdL+s5glSwa9rgdvsFaR7DTv5KcjhnVcV5PD4bYajFSS4CgoShFsUrSBB0AoShFsUrSBB0AoShFsUrSBB0AoShFsUrSBB0AoShFsUrSBB0AoShFsUrSBB0AoShFsUrSBB0AoShFsUrSBB0AoShFsUrSBB0AoShFsUrSBB0AoShFsUrSBB0AoShFsUrSBB0AoShFsUrSBB0AoShFsUrSBB0AoShFsUrSBB0AoShFsUrSBB0AoShFsUrSBB0AoShFsUrSBB0AoShFsUrSBB0AoShFsUrSBB0AoShFsUrSBB0AoShFsUrSBB0AoShFsUrSBB0AoShFsUrSBB0AoShFsUrSBB0AoShFsUrSBB0AoShFsUrSBB0AoShFsUrSBB0AoShFsUrSBB0AoShFsUrSBB0AoShFsUrSBB0AoShFsUrSBB0AoShFsUrSBB0G3zzCbJrLYZtmBr82vbsNmmE1CQ4CtDQYJwi6IVJAjaS6wg3KJoBQmCVpAg3KJoBQmCVpAg3KJoBQmCVpAg3KJoBQmCVpAg3KJoBQmCVpAg3KJoBQmCVpAg3KJoBQmC9n2QINyiaAUJglaQINyiaAUJglaQINyiaAUJgvYeJAi3KFpBgqAVJAi3KFpBgqAVJAi3KFpBgqAVJAi3KFpBgqAVJAi3KFpBgqAVJAi3KFpBgqAVJAi3KFpBgqAVJAi3KFpBgqB9ozAItyhaQYKgFSQItyhaQYKgvcQKwi2KVpAgaAUJwi2KVpAgaAUJwi2KVpAgaAUJwi2KVpAgaG/Sg3CLohUkCNq/IEG4RdEKEgStIEG4RdEKEgStIEG4RdEKEgTtPUgQblG0ggRBK0gQblG0ggRBe4kVhFsUrSBB0AoShFsUPVeQ+4AdMyZTsUNSEYfIMPME+RpwcWTkQ6HfAL7YMUbbXaprF6zw9DZ9fJcg+7cA3wU+0yHIpq9wyRPc2TH+OcDN4fl9APh5xxjtJGfrJjBrDa9ognwc+IEEIwTeCDweST4Uug34U3iMocbvaYKcCPwOOGqoFEJ13wS0s3tF67yOrpjACo7xKPC2JkhrlwFfXsEil1XSs8AxwFNFEzgeeKhorKEM8yHgxrEgreiDwHFDqT5c5/Nww2Osjd8N3FA85qoO19aurSGTgrTv9wFnrmrVRXWdBdxaNNbaYfYA1y9p7FUZ9gVP/dYK0opsZ6JrgK2rUnFRHe3kcgHQrl2X2dql3eWjdVzmPI60sZ8cPbDaOznxaYK037dr2tNHN/Anjf490gpOz/cZ4AHgwOirPWr9b3rQdeSfC2wHTh59ecJ7Mby2duM1vGfa08D/AQVRrVxKS4TlAAAAAElFTkSuQmCC;fontSize=16;" vertex="1" parent="1">
          <mxGeometry x="371" y="28" width="100" height="100" as="geometry" />
        </mxCell>
        <mxCell id="WxOWdNABIb3smLaqyzwR-13" value="连接CN_PD" style="text;html=1;strokeColor=none;fillColor=none;align=center;verticalAlign=middle;whiteSpace=wrap;rounded=0;strokeWidth=1;fontSize=16;" vertex="1" parent="1">
          <mxGeometry x="271" y="308" width="60" height="30" as="geometry" />
        </mxCell>
        <mxCell id="WxOWdNABIb3smLaqyzwR-14" value="连接CN_VD" style="text;html=1;strokeColor=none;fillColor=none;align=center;verticalAlign=middle;whiteSpace=wrap;rounded=0;strokeWidth=1;fontSize=16;" vertex="1" parent="1">
          <mxGeometry x="503" y="308" width="60" height="30" as="geometry" />
        </mxCell>
        <mxCell id="WxOWdNABIb3smLaqyzwR-15" value="连接CN_SD" style="text;html=1;strokeColor=none;fillColor=none;align=center;verticalAlign=middle;whiteSpace=wrap;rounded=0;strokeWidth=1;fontSize=16;" vertex="1" parent="1">
          <mxGeometry x="431" y="169" width="60" height="30" as="geometry" />
        </mxCell>
        <mxCell id="WxOWdNABIb3smLaqyzwR-30" style="edgeStyle=none;rounded=0;orthogonalLoop=1;jettySize=auto;html=1;fontSize=16;startArrow=classicThin;startFill=1;endArrow=classic;endFill=1;" edge="1" parent="1" source="WxOWdNABIb3smLaqyzwR-23">
          <mxGeometry relative="1" as="geometry">
            <mxPoint x="374.5" y="525.6666870117188" as="targetPoint" />
          </mxGeometry>
        </mxCell>
        <mxCell id="WxOWdNABIb3smLaqyzwR-31" style="edgeStyle=none;rounded=0;orthogonalLoop=1;jettySize=auto;html=1;exitX=1;exitY=1;exitDx=0;exitDy=0;fontSize=16;startArrow=classicThin;startFill=1;endArrow=classic;endFill=1;" edge="1" parent="1" source="WxOWdNABIb3smLaqyzwR-23">
          <mxGeometry relative="1" as="geometry">
            <mxPoint x="531" y="849" as="targetPoint" />
          </mxGeometry>
        </mxCell>
        <mxCell id="WxOWdNABIb3smLaqyzwR-32" style="edgeStyle=none;rounded=0;orthogonalLoop=1;jettySize=auto;html=1;exitX=0;exitY=1;exitDx=0;exitDy=0;fontSize=16;startArrow=classicThin;startFill=1;endArrow=classic;endFill=1;" edge="1" parent="1" source="WxOWdNABIb3smLaqyzwR-23">
          <mxGeometry relative="1" as="geometry">
            <mxPoint x="221" y="853.6666870117188" as="targetPoint" />
          </mxGeometry>
        </mxCell>
        <mxCell id="WxOWdNABIb3smLaqyzwR-23" value="孪生&lt;br&gt;数据&lt;br&gt;DD" style="whiteSpace=wrap;html=1;aspect=fixed;strokeWidth=1;fontSize=16;" vertex="1" parent="1">
          <mxGeometry x="265" y="582" width="219" height="219" as="geometry" />
        </mxCell>
        <mxCell id="WxOWdNABIb3smLaqyzwR-24" value="" style="endArrow=classicThin;startArrow=classicThin;html=1;rounded=0;fontSize=16;exitX=0.5;exitY=0;exitDx=0;exitDy=0;entryX=1;entryY=1;entryDx=0;entryDy=0;endFill=1;startFill=1;" edge="1" parent="1" source="WxOWdNABIb3smLaqyzwR-23" target="WxOWdNABIb3smLaqyzwR-23">
          <mxGeometry width="50" height="50" relative="1" as="geometry">
            <mxPoint x="445" y="686" as="sourcePoint" />
            <mxPoint x="487" y="801" as="targetPoint" />
          </mxGeometry>
        </mxCell>
        <mxCell id="WxOWdNABIb3smLaqyzwR-25" value="" style="endArrow=classicThin;startArrow=classicThin;html=1;rounded=0;fontSize=16;exitX=0.5;exitY=0;exitDx=0;exitDy=0;entryX=0;entryY=1;entryDx=0;entryDy=0;startFill=1;endFill=1;" edge="1" parent="1" source="WxOWdNABIb3smLaqyzwR-23" target="WxOWdNABIb3smLaqyzwR-23">
          <mxGeometry width="50" height="50" relative="1" as="geometry">
            <mxPoint x="431" y="683" as="sourcePoint" />
            <mxPoint x="493.5" y="808" as="targetPoint" />
          </mxGeometry>
        </mxCell>
        <mxCell id="WxOWdNABIb3smLaqyzwR-26" value="" style="curved=1;endArrow=classicThin;html=1;rounded=0;fontSize=16;exitX=0;exitY=1;exitDx=0;exitDy=0;entryX=1;entryY=1;entryDx=0;entryDy=0;endFill=1;startArrow=classicThin;startFill=1;" edge="1" parent="1" source="WxOWdNABIb3smLaqyzwR-23" target="WxOWdNABIb3smLaqyzwR-23">
          <mxGeometry width="50" height="50" relative="1" as="geometry">
            <mxPoint x="445" y="686" as="sourcePoint" />
            <mxPoint x="495" y="636" as="targetPoint" />
            <Array as="points">
              <mxPoint x="322" y="783" />
              <mxPoint x="385" y="776" />
              <mxPoint x="430" y="783" />
            </Array>
          </mxGeometry>
        </mxCell>
        <mxCell id="WxOWdNABIb3smLaqyzwR-27" value="Ss_PE通道" style="text;html=1;strokeColor=none;fillColor=none;align=center;verticalAlign=middle;whiteSpace=wrap;rounded=0;strokeWidth=1;fontSize=16;" vertex="1" parent="1">
          <mxGeometry x="265" y="664" width="60" height="30" as="geometry" />
        </mxCell>
        <mxCell id="WxOWdNABIb3smLaqyzwR-28" value="PE_VE通道" style="text;html=1;strokeColor=none;fillColor=none;align=center;verticalAlign=middle;whiteSpace=wrap;rounded=0;strokeWidth=1;fontSize=16;" vertex="1" parent="1">
          <mxGeometry x="344.5" y="741" width="60" height="30" as="geometry" />
        </mxCell>
        <mxCell id="WxOWdNABIb3smLaqyzwR-29" value="VE_Ss通道" style="text;html=1;strokeColor=none;fillColor=none;align=center;verticalAlign=middle;whiteSpace=wrap;rounded=0;strokeWidth=1;fontSize=16;" vertex="1" parent="1">
          <mxGeometry x="424" y="664" width="60" height="30" as="geometry" />
        </mxCell>
        <mxCell id="WxOWdNABIb3smLaqyzwR-33" value="连接CN_PD" style="text;html=1;strokeColor=none;fillColor=none;align=center;verticalAlign=middle;whiteSpace=wrap;rounded=0;strokeWidth=1;fontSize=16;" vertex="1" parent="1">
          <mxGeometry x="184" y="791" width="60" height="30" as="geometry" />
        </mxCell>
        <mxCell id="WxOWdNABIb3smLaqyzwR-34" value="连接CN_VD" style="text;html=1;strokeColor=none;fillColor=none;align=center;verticalAlign=middle;whiteSpace=wrap;rounded=0;strokeWidth=1;fontSize=16;" vertex="1" parent="1">
          <mxGeometry x="505" y="786" width="60" height="30" as="geometry" />
        </mxCell>
        <mxCell id="WxOWdNABIb3smLaqyzwR-36" value="连接CN_SD" style="text;html=1;strokeColor=none;fillColor=none;align=center;verticalAlign=middle;whiteSpace=wrap;rounded=0;strokeWidth=1;fontSize=16;" vertex="1" parent="1">
          <mxGeometry x="384" y="532" width="60" height="30" as="geometry" />
        </mxCell>
      </root>
    </mxGraphModel>
  </diagram>
</mxfile>
